<?xml version='1.0' encoding='utf-8'?>
<svg xmlns="http://www.w3.org/2000/svg" version="1.0" width="2000.000000pt" height="2000.000000pt" viewBox="0 0 2000.000000 2000.000000" preserveAspectRatio="xMidYMid meet"> <metadata> Created by potrace 1.13, written by Peter Selinger 2001-2015 </metadata> <g transform="translate(0.000000,2000.000000) scale(0.100000,-0.100000)" fill="#3374d4" stroke="none"> <path d="M8802 16400 c-12 -5 -50 -33 -85 -61 -43 -37 -120 -80 -256 -146 -207 -100 -285 -149 -391 -250 -63 -59 -96 -98 -190 -228 -222 -305 -304 -400 -395 -455 -53 -31 -66 -35 -164 -40 -104 -7 -108 -8 -206 -59 -173 -91 -201 -119 -345 -336 -34 -51 -107 -133 -200 -225 -122 -120 -163 -169 -239 -282 -50 -75 -110 -174 -133 -220 -63 -127 -111 -192 -242 -327 -208 -213 -538 -507 -891 -796 -369 -301 -613 -532 -813 -767 -45 -53 -112 -120 -147 -148 -36 -28 -79 -72 -95 -98 -78 -122 -157 -319 -180 -448 -16 -89 -9 -243 14 -309 32 -92 113 -250 142 -277 38 -35 183 -121 252 -149 l54 -22 -3 -71 c-4 -114 -1 -117 137 -150 220 -52 349 -76 405 -76 31 0 94 -7 140 -16 98 -18 577 -131 894 -210 121 -31 272 -66 335 -80 79 -16 140 -37 195 -64 95 -48 326 -211 336 -237 13 -39 19 -320 9 -510 -20 -381 -112 -1470 -136 -1613 -9 -52 -38 -169 -65 -260 -59 -199 -82 -304 -74 -341 10 -44 36 -59 132 -74 49 -7 121 -22 160 -34 l71 -21 12 -51 c23 -96 -18 -359 -101 -649 -65 -226 -79 -373 -61 -633 14 -196 25 -253 82 -427 23 -69 68 -233 101 -365 141 -566 189 -898 189 -1295 -1 -222 -10 -300 -52 -445 -55 -190 -42 -293 45 -356 85 -61 103 -64 537 -64 348 -1 413 -4 545 -23 143 -20 584 -74 727 -88 110 -10 176 2 215 41 55 55 44 88 -68 209 -82 89 -105 99 -218 90 -75 -6 -94 -4 -133 14 -65 29 -180 108 -290 201 -137 115 -199 156 -283 186 -65 24 -79 34 -118 84 -95 121 -157 258 -201 442 -42 176 -48 278 -36 716 15 589 13 913 -6 1094 -9 85 -17 244 -18 354 -1 237 4 258 94 415 59 102 86 172 95 241 2 19 38 203 80 409 42 206 107 544 146 750 38 206 90 479 114 605 88 458 97 511 104 657 9 173 16 188 99 224 133 57 127 45 127 269 l0 180 45 1 c25 1 54 2 66 3 12 0 43 17 69 37 26 20 64 42 84 48 20 7 56 24 81 39 25 15 99 57 165 94 457 251 554 331 1063 873 280 299 310 341 361 520 17 58 67 209 111 335 177 503 265 808 296 1027 l18 127 36 5 c19 3 71 8 115 11 140 10 407 46 505 67 117 25 175 47 360 136 142 68 320 138 510 201 190 62 244 71 455 81 268 12 529 56 822 140 187 53 525 168 708 242 83 33 224 85 315 115 108 35 236 88 370 153 113 54 243 113 290 131 82 31 140 73 140 101 0 30 64 71 294 185 229 113 306 162 306 196 0 21 -57 77 -78 77 -10 0 -38 -11 -64 -25 l-47 -25 -37 25 c-20 14 -47 25 -59 25 -12 0 -87 -31 -166 -69 -190 -91 -189 -90 -189 -51 0 47 -33 101 -87 141 -56 42 -113 73 -114 62 -1 -5 -4 3 -8 17 -10 36 -103 90 -156 90 -74 0 -187 -90 -274 -219 -66 -96 -141 -247 -141 -282 0 -23 -12 -43 -47 -80 l-48 -50 -135 -25 c-332 -61 -493 -77 -930 -94 -418 -16 -569 -27 -640 -45 -34 -9 -138 -49 -231 -89 l-168 -74 -63 14 c-213 45 -449 19 -763 -82 -98 -32 -125 -37 -251 -41 -136 -6 -144 -5 -213 22 -119 45 -170 55 -306 62 -129 5 -329 -7 -423 -28 -36 -7 -68 -26 -122 -69 -40 -33 -79 -60 -87 -60 -17 0 -33 41 -33 88 0 20 7 126 17 235 l16 197 36 10 c20 5 73 14 119 19 45 5 93 16 107 25 28 18 33 34 37 127 4 69 4 69 83 178 30 41 32 70 5 103 -19 25 -19 25 1 47 19 20 20 26 9 99 -11 71 -11 77 6 87 10 5 33 24 51 42 26 24 33 39 33 67 0 53 -15 77 -137 218 -100 116 -109 129 -105 161 4 38 -31 265 -54 346 -41 144 -150 290 -262 349 -70 38 -214 77 -332 92 -110 13 -402 13 -510 -1 -82 -10 -134 -28 -193 -66 l-27 -18 -59 62 c-66 70 -154 130 -220 150 -50 15 -48 15 -79 3z m671 -157 c-7 -2 -19 -2 -25 0 -7 3 -2 5 12 5 14 0 19 -2 13 -5z m-906 -1023 c42 -117 79 -267 93 -381 14 -114 0 -204 -45 -307 -93 -213 -91 -335 21 -957 31 -170 74 -382 96 -470 l40 -160 -11 -203 c-16 -277 -39 -397 -132 -697 -54 -170 -84 -228 -157 -297 -59 -57 -62 -58 -119 -58 -32 0 -90 9 -128 20 -169 49 -359 82 -500 87 -254 10 -360 -21 -745 -214 -259 -130 -266 -133 -330 -133 -129 0 -241 20 -376 65 -72 24 -169 51 -216 59 -97 17 -350 40 -613 57 -99 6 -181 12 -182 13 -2 2 18 20 44 41 97 78 174 187 533 760 62 99 208 322 323 495 116 173 220 330 231 348 l21 33 160 -7 c281 -14 336 -12 373 15 66 47 91 139 94 347 2 120 0 136 -31 238 -32 104 -34 114 -28 225 7 156 39 310 81 386 29 53 37 60 67 63 19 2 57 -1 85 -7 43 -10 60 -21 108 -71 52 -55 60 -60 100 -60 36 0 54 8 102 43 60 44 99 87 239 261 92 115 137 153 268 225 124 69 147 89 215 190 31 47 69 93 84 104 31 23 120 46 167 44 33 -2 34 -3 68 -97z m6618 -574 c24 -10 44 -12 65 -6 25 7 35 5 51 -11 29 -29 24 -63 -17 -103 -41 -39 -67 -51 -87 -39 -44 28 -137 108 -137 119 0 17 49 54 72 54 10 0 34 -6 53 -14z m-4628 -248 c-3 -8 -6 -5 -6 6 -1 11 2 17 5 13 3 -3 4 -12 1 -19z m-3600 -200 c-3 -7 -5 -2 -5 12 0 14 2 19 5 13 2 -7 2 -19 0 -25z m3270 -330 c-3 -8 -6 -5 -6 6 -1 11 2 17 5 13 3 -3 4 -12 1 -19z m1146 -55 c-7 -2 -21 -2 -30 0 -10 3 -4 5 12 5 17 0 24 -2 18 -5z m-3706 -7625 c-3 -7 -5 -2 -5 12 0 14 2 19 5 13 2 -7 2 -19 0 -25z m30 -1250 c-2 -13 -4 -3 -4 22 0 25 2 35 4 23 2 -13 2 -33 0 -45z m-10 -515 c-2 -16 -4 -3 -4 27 0 30 2 43 4 28 2 -16 2 -40 0 -55z m-600 -850 c-3 -10 -5 -2 -5 17 0 19 2 27 5 18 2 -10 2 -26 0 -35z m1781 -660 c-10 -2 -26 -2 -35 0 -10 3 -2 5 17 5 19 0 27 -2 18 -5z"/> </g> </svg>